TITLE:   EPSV_traccia VFX 
FCM: NON-DROP FRAME
000001  B040_C014_0411AW_001                                                                                                              V     C        18:51:50:23 18:52:00:21 01:08:21:15 01:08:31:13 
*FROM CLIP NAME:  8-8-/01 B + 
*LOC: 01:08:26:14 GREEN   EPSV_08_015 
*SOURCE FILE: B040_C014_0411AW_001
000002  A010_C018_0325YA_001                                                                                                              V     C        18:02:36:04 18:02:46:12 01:15:50:20 01:16:01:04 
*FROM CLIP NAME:  14-12-/02 A + 
*LOC: 01:15:56:00 GREEN   EPSV_14_020 
*SOURCE FILE: A010_C018_0325YA_001
000003  A005_C017_0321P5_001                                                                                                              V     C        11:00:18:01 11:00:21:00 01:20:08:13 01:20:11:12 
*FROM CLIP NAME:  20-5-/03 A + 
*LOC: 01:20:10:00 GREEN   EPSV_20_020 
*SOURCE FILE: A005_C017_0321P5_001
000004  B023_C006_0327C6_001                                                                                                              V     C        17:09:28:17 17:09:31:00 01:21:54:03 01:21:56:10 
*FROM CLIP NAME:  21ES-1-/02 B MOS + 
*LOC: 01:21:55:06 GREEN   EPSV_21_020 
*SOURCE FILE: B023_C006_0327C6_001
000005  A035_C042_040965_001                                                                                                              V     C        20:25:46:22 20:25:50:21 01:24:55:09 01:24:59:08 
*FROM CLIP NAME:  26-8-/02 A + 
*LOC: 01:24:57:08 GREEN   EPSV_26_020 
*SOURCE FILE: A035_C042_040965_001
000006  A039_C009_0410AT_001                                                                                                              V     C        00:30:39:03 00:30:47:22 01:33:04:22 01:33:13:17 
*FROM CLIP NAME:  38-6-/03 A 
*LOC: 01:33:09:07 GREEN   EPSV_38_020 
*SOURCE FILE: A039_C009_0410AT_001
000007  A026_C026_04054M_001                                                                                                              V     C        19:16:42:18 19:16:46:18 01:36:25:16 01:36:29:16 
*FROM CLIP NAME:  41-3-/02 A 
*LOC: 01:36:27:16 GREEN   EPSV_41_020 
*SOURCE FILE: A026_C026_04054M_001
000008  A026_C020_0405EA_001                                                                                                              V     C        18:53:11:18 18:53:15:18 01:36:29:16 01:36:33:16 
*FROM CLIP NAME:  41-1-/05 A 
*SOURCE FILE: A026_C020_0405EA_001
000009  B042_C018_0412LA_001                                                                                                              V     C        19:05:05:11 19:05:08:07 01:37:50:20 01:37:53:16 
*FROM CLIP NAME:  42-4-/07 B + 
*SOURCE FILE: B042_C018_0412LA_001
000010  B042_C018_0412LA_001                                                                                                              V     C        19:05:09:02 19:05:12:12 01:37:55:15 01:37:59:01 
*FROM CLIP NAME:  42-4-/07 B + 
*SOURCE FILE: B042_C018_0412LA_001
000011  B042_C018_0412LA_001                                                                                                              V     C        19:06:20:04 19:06:28:08 01:38:00:19 01:38:08:23 
*FROM CLIP NAME:  42-4-/07 B + 
*SOURCE FILE: B042_C018_0412LA_001
000012  B042_C018_0412LA_001                                                                                                              V     C        19:06:31:13 19:06:44:18 01:38:12:04 01:38:25:09 
*FROM CLIP NAME:  42-4-/07 B + 
*SOURCE FILE: B042_C018_0412LA_001
000013  B042_C018_0412LA_001                                                                                                              V     C        19:06:48:14 19:06:55:22 01:38:27:11 01:38:34:19 
*FROM CLIP NAME:  42-4-/07 B + 
*SOURCE FILE: B042_C018_0412LA_001
000014  B042_C018_0412LA_001                                                                                                              V     C        19:06:57:01 19:07:09:12 01:38:35:22 01:38:48:09 
*FROM CLIP NAME:  42-4-/07 B + 
*SOURCE FILE: B042_C018_0412LA_001
000015  A012_C013_0326FO_001                                                                                                              V     C        16:30:57:02 16:30:58:15 01:41:20:06 01:41:21:19 
*FROM CLIP NAME:  47-3-/04 A + 
*SOURCE FILE: A012_C013_0326FO_001
000016  A012_C009_032690_001                                                                                                              V     C        16:04:07:21 16:04:12:21 01:41:22:12 01:41:27:12 
*FROM CLIP NAME:  47-2-/05 A + 
*SOURCE FILE: A012_C009_032690_001
000017  A012_C013_0326FO_001                                                                                                              V     C        16:31:03:17 16:31:05:07 01:41:27:12 01:41:29:02 
*FROM CLIP NAME:  47-3-/04 A + 
*SOURCE FILE: A012_C013_0326FO_001
000018  A012_C009_032690_001                                                                                                              V     C        16:04:17:10 16:04:18:08 01:41:32:17 01:41:33:15 
*FROM CLIP NAME:  47-2-/05 A + 
*SOURCE FILE: A012_C009_032690_001
000019  A012_C023_032674_001                                                                                                              V     C        17:06:20:01 17:06:25:13 01:41:33:15 01:41:39:03 
*FROM CLIP NAME:  47-6-/01 A 
*SOURCE FILE: A012_C023_032674_001
000020  A012_C012_0326WI_001                                                                                                              V     C        16:25:19:00 16:25:20:12 01:41:39:03 01:41:40:15 
*FROM CLIP NAME:  47-3-/03 A 
*SOURCE FILE: A012_C012_0326WI_001
000021  A012_C023_032674_001                                                                                                              V     C        17:06:26:02 17:06:26:17 01:41:40:15 01:41:41:06 
*FROM CLIP NAME:  47-6-/01 A 
*SOURCE FILE: A012_C023_032674_001
000022  A012_C009_032690_001                                                                                                              V     C        16:04:20:19 16:04:21:09 01:41:41:06 01:41:41:20 
*FROM CLIP NAME:  47-2-/05 A + 
*SOURCE FILE: A012_C009_032690_001
000023  A012_C009_032690_001                                                                                                              V     C        16:04:22:10 16:04:25:09 01:41:42:13 01:41:45:12 
*FROM CLIP NAME:  47-2-/05 A + 
*SOURCE FILE: A012_C009_032690_001
000024  A012_C013_0326FO_001                                                                                                              V     C        16:31:18:07 16:31:19:18 01:41:45:12 01:41:46:23 
*FROM CLIP NAME:  47-3-/04 A + 
*SOURCE FILE: A012_C013_0326FO_001
000025  B016_C023_03230T_001                                                                                                              V     C        12:13:54:00 12:14:06:01 02:30:18:19 02:30:30:20 
*FROM CLIP NAME:  95-1-/05 B + 
*SOURCE FILE: B016_C023_03230T_001
000026  B048_C002_0417S3_001                                                                                                              V     C        10:25:42:00 10:25:46:09 02:30:30:20 02:30:35:05 
*FROM CLIP NAME:  96-1-/02 B 
*SOURCE FILE: B048_C002_0417S3_001